Coordinates
version=1
nRows=10
nColumns=28
inDegrees=yes

Units are S.I. units (second, meters, Newtons, ...)
Angles are in degrees.

endheader
time	pelvis_tilt	pelvis_list	pelvis_rotation	pelvis_tx	pelvis_ty	pelvis_tz	hip_flexion_r	hip_adduction_r	hip_rotation_r	knee_angle_r	ankle_angle_r	subtalar_angle_r	mtp_angle_r	hip_flexion_l	hip_adduction_l	hip_rotation_l	knee_angle_l	socket_flexion	socket_adduction	socket_rotation	socket_tx	socket_ty	socket_tz	foot_flex	lumbar_extension	lumbar_bending	lumbar_rotation
      0.97916667	      9.86869753	      2.76051032	     -6.75455146	      0.41533461	      1.03266422	      0.27892273	     -3.49961832	      0.76990889	      2.33489191	    -19.34724599	     11.01301680	     -3.24224090	     34.49894241	     -3.81307540	      0.84910565	     -7.03011514	    -51.96714628	      0.00000000	      0.00000000	      0.00000000	      0.00000000	      0.00000000	      0.00000000	      5.14259516	    -17.18702484	     -3.15794606	     13.04591205
      0.98333333	      9.85578380	      2.86502435	     -7.01792312	      0.42000190	      1.03327334	      0.27954284	     -3.91931184	      0.55683499	      2.31191623	    -18.99952298	     10.99797358	     -3.07732891	     34.55436379	     -3.23018359	      0.92748445	     -6.97541815	    -51.69109528	      0.00000000	      0.00000000	      0.00000000	      0.00000000	      0.00000000	      0.00000000	      5.17153123	    -17.16344651	     -3.35286031	     13.05869372
      0.98750000	      9.83329030	      2.96634213	     -7.28835316	      0.42469426	      1.03387765	      0.28011599	     -4.34423560	      0.34819937	      2.34120441	    -18.61467495	     10.93622508	     -2.79505385	     34.63250212	     -2.67058335	      1.02637565	     -6.87257896	    -51.32019779	      0.00000000	      0.00000000	      0.00000000	      0.00000000	      0.00000000	      0.00000000	      5.15746052	    -17.11782938	     -3.55183980	     13.15747910
      0.99166667	      9.86374733	      3.08834336	     -7.64412236	      0.42931716	      1.03441688	      0.28068634	     -4.65139919	      0.02597274	      2.04392819	    -18.52065534	     10.96396944	     -1.57679985	     35.44919453	     -2.17857366	      1.17361700	     -6.83743247	    -50.90365166	      0.00000000	      0.00000000	      0.00000000	      0.00000000	      0.00000000	      0.00000000	      5.11264879	    -17.12399779	     -3.82200254	     13.66111101
      0.99583333	      9.83484176	      3.15227247	     -7.89963963	      0.43391982	      1.03492435	      0.28127789	     -5.04822735	     -0.13940531	      2.04976498	    -18.17745550	     10.90925134	     -1.40119315	     35.51057449	     -1.61660928	      1.22730852	     -6.70722564	    -50.49156465	      0.00000000	      0.00000000	      0.00000000	      0.00000000	      0.00000000	      0.00000000	      5.14193408	    -17.08901200	     -3.97172179	     13.69362915
      1.00000000	      9.86113209	      3.10596494	     -8.19120775	      0.43795610	      1.03538699	      0.28188145	     -5.33063542	     -0.19925668	      1.97728387	    -18.14699013	     10.90935569	     -1.37739087	     35.51787606	     -1.05573547	      1.15773769	     -6.61590464	    -50.16120991	      0.00000000	      0.00000000	      0.00000000	      0.00000000	      0.00000000	      0.00000000	      5.16978539	    -17.22062428	     -4.01173587	     13.70449112
      1.00416667	      9.76953867	      3.22814857	     -8.41633029	      0.44300532	      1.03585915	      0.28240135	     -5.80647095	     -0.41877274	      2.09881028	    -17.53178740	     10.80901391	     -1.01215354	     35.58936711	     -0.51961942	      1.30186373	     -6.39080102	    -49.54385488	      0.00000000	      0.00000000	      0.00000000	      0.00000000	      0.00000000	      0.00000000	      5.12836155	    -17.01531107	     -4.21085514	     13.87465609
      1.00833333	      9.72246735	      3.23830075	     -8.67161824	      0.44746987	      1.03627326	      0.28294432	     -6.16987891	     -0.52881355	      2.12736562	    -17.19589491	     10.67545871	     -0.65686662	     35.68125312	      0.03600822	      1.31025779	     -6.21219405	    -49.02951221	      0.00000000	      0.00000000	      0.00000000	      0.00000000	      0.00000000	      0.00000000	      5.08686035	    -16.98862329	     -4.31890917	     14.08012735
      1.01250000	      9.68818352	      3.23006614	     -8.97204206	      0.45189658	      1.03659627	      0.28356826	     -6.44698133	     -0.65808163	      1.97153585	    -17.03101557	     10.51381834	      0.20156198	     36.16779869	      0.56565117	      1.29021972	     -6.08765179	    -48.49740139	      0.00000000	      0.00000000	      0.00000000	      0.00000000	      0.00000000	      0.00000000	      5.08499968	    -16.96078391	     -4.46900128	     14.57388327
      1.01666667	      9.64956938	      3.22554339	     -9.22727643	      0.45629323	      1.03694729	      0.28402953	     -6.76601607	     -0.76682141	      1.96488737	    -16.80869313	     10.53172213	      0.35485629	     36.24674942	      1.08986270	      1.30224542	     -5.86066809	    -47.90912942	      0.00000000	      0.00000000	      0.00000000	      0.00000000	      0.00000000	      0.00000000	      5.06323858	    -16.95290781	     -4.50463495	     14.62105853
